<?xml version="1.0" encoding="UTF-8"?> <svg xmlns="http://www.w3.org/2000/svg" id="b8e8d857-99b9-4b5c-b3ab-d4a131501e4f" data-name="Layer 1" viewBox="0 0 600 200"><polygon points="244.33 42.7 227.64 42.7 227.64 91.13 213.87 91.13 213.87 42.7 197.17 42.7 197.17 31.79 244.33 31.79 244.33 42.7" fill="#16595e"></polygon><path d="M270.63,59.69a14.31,14.31,0,0,0,4.79-.71,8.79,8.79,0,0,0,3.24-2,7.56,7.56,0,0,0,1.83-3,11.35,11.35,0,0,0,.57-3.65,7.65,7.65,0,0,0-2.55-6.11Q276,42.1,270.63,42.1h-5.54V59.69Zm29.25,31.44H287.41a5.27,5.27,0,0,1-5-2.61L272.59,71.3A4.71,4.71,0,0,0,271,69.69a4.79,4.79,0,0,0-2.44-.51h-3.51V91.13H251.33V31.79h19.3a39.35,39.35,0,0,1,11,1.33A20.57,20.57,0,0,1,289,36.8a13.92,13.92,0,0,1,4.18,5.58,18.67,18.67,0,0,1,1.3,7,19,19,0,0,1-.77,5.46,17.21,17.21,0,0,1-2.28,4.75,17.58,17.58,0,0,1-3.73,3.89,20.25,20.25,0,0,1-5.11,2.81A12.41,12.41,0,0,1,285.13,68a12.13,12.13,0,0,1,2.12,2.46Z" fill="#16595e"></path><path d="M344.94,75.78a2.77,2.77,0,0,1,1,.18,2.59,2.59,0,0,1,.94.63l5.46,5.74a22.67,22.67,0,0,1-9,7.07,31.43,31.43,0,0,1-12.77,2.38,30.32,30.32,0,0,1-12.12-2.3,26.13,26.13,0,0,1-9.08-6.35,28.07,28.07,0,0,1-5.72-9.61,35.52,35.52,0,0,1-2-12.08,33.42,33.42,0,0,1,2.16-12.2,28.37,28.37,0,0,1,6.07-9.59,27.42,27.42,0,0,1,9.37-6.27,31.36,31.36,0,0,1,12-2.24,32.23,32.23,0,0,1,6.29.59,31.44,31.44,0,0,1,5.52,1.63A25,25,0,0,1,351.62,39L347,45.27a5.81,5.81,0,0,1-1.06,1,2.74,2.74,0,0,1-1.71.47,3,3,0,0,1-1.38-.33,13.68,13.68,0,0,1-1.39-.79l-1.61-1a11.74,11.74,0,0,0-2.07-1,17.75,17.75,0,0,0-2.81-.79,18.94,18.94,0,0,0-3.77-.33,15,15,0,0,0-6.25,1.27A13.63,13.63,0,0,0,320,47.45a17.17,17.17,0,0,0-3.18,5.95,26.71,26.71,0,0,0-1.11,8A24.46,24.46,0,0,0,317,69.55a17.52,17.52,0,0,0,3.38,6,14.24,14.24,0,0,0,5,3.69,14.9,14.9,0,0,0,6.1,1.26,30,30,0,0,0,3.43-.18,15.88,15.88,0,0,0,2.89-.61,12.46,12.46,0,0,0,2.52-1.14,16.76,16.76,0,0,0,2.41-1.82,5.05,5.05,0,0,1,1.05-.67A2.9,2.9,0,0,1,344.94,75.78Z" fill="#16595e"></path><path d="M428.35,63.07v22.4A32.8,32.8,0,0,1,419,90.22,36.52,36.52,0,0,1,408,91.78a35,35,0,0,1-12.71-2.18,28,28,0,0,1-9.67-6.11,26.73,26.73,0,0,1-6.17-9.42A32.84,32.84,0,0,1,377.32,62a33.92,33.92,0,0,1,2.1-12.18,27,27,0,0,1,6-9.43,26.37,26.37,0,0,1,9.4-6.08,33.88,33.88,0,0,1,12.39-2.16,38.1,38.1,0,0,1,6.43.51,28.91,28.91,0,0,1,5.5,1.46,26.16,26.16,0,0,1,4.68,2.32,28.25,28.25,0,0,1,4,3.08l-2.24,3.58a2.28,2.28,0,0,1-1.36,1,2.35,2.35,0,0,1-1.85-.39c-.65-.38-1.4-.84-2.24-1.38a19.51,19.51,0,0,0-3.08-1.57,24.48,24.48,0,0,0-4.27-1.28,28.49,28.49,0,0,0-5.85-.53A23.74,23.74,0,0,0,398,40.57a18.75,18.75,0,0,0-6.8,4.6,20.52,20.52,0,0,0-4.32,7.25,28.61,28.61,0,0,0-1.5,9.55A29,29,0,0,0,387,71.81a20.55,20.55,0,0,0,4.49,7.37,19.1,19.1,0,0,0,7.06,4.62,28.47,28.47,0,0,0,16.56.67,31.73,31.73,0,0,0,6.17-2.54V69.1h-9.09a1.72,1.72,0,0,1-1.24-.45,1.47,1.47,0,0,1-.47-1.1V63.07Z" fill="#16595e"></path><rect x="438.98" y="31.14" width="7.25" height="59.99" fill="#16595e"></rect><path d="M475.38,49.22a20.9,20.9,0,0,1,8.14,1.51A17.32,17.32,0,0,1,489.71,55a18.73,18.73,0,0,1,3.93,6.7,28.85,28.85,0,0,1,0,17.57A18.91,18.91,0,0,1,489.71,86a17.25,17.25,0,0,1-6.19,4.25,21.27,21.27,0,0,1-8.14,1.49,21.57,21.57,0,0,1-8.21-1.49A17.24,17.24,0,0,1,461,86,18.91,18.91,0,0,1,457,79.28a28.85,28.85,0,0,1,0-17.57A18.73,18.73,0,0,1,461,55a17.31,17.31,0,0,1,6.21-4.28,21.19,21.19,0,0,1,8.21-1.51m0,36.82q6.11,0,9.12-4.09t3-11.43q0-7.36-3-11.48t-9.12-4.12A12.88,12.88,0,0,0,470,56,10.13,10.13,0,0,0,466.15,59,13.44,13.44,0,0,0,463.87,64a26.37,26.37,0,0,0-.75,6.57q0,7.33,3,11.43T475.38,86" fill="#16595e"></path><path d="M511.41,81.19A11.64,11.64,0,0,0,515.79,85a12.39,12.39,0,0,0,5.24,1.1q5.82,0,8.91-4.11T533,69.71q0-7.57-2.75-11.14A9.3,9.3,0,0,0,522.45,55a11.43,11.43,0,0,0-6.17,1.63,18.22,18.22,0,0,0-4.87,4.6Zm0-25.37A21.09,21.09,0,0,1,517.3,51a15.41,15.41,0,0,1,7.55-1.8,14.94,14.94,0,0,1,6.54,1.39,13.58,13.58,0,0,1,5,4A18.75,18.75,0,0,1,539.45,61a30.45,30.45,0,0,1,1.08,8.43,32.22,32.22,0,0,1-1.22,9.13,20.85,20.85,0,0,1-3.52,7,16,16,0,0,1-5.6,4.52,16.72,16.72,0,0,1-7.41,1.61,14.13,14.13,0,0,1-6.87-1.53,14.86,14.86,0,0,1-4.86-4.33l-.37,3.74a1.75,1.75,0,0,1-1.87,1.55h-4.69v-60h7.29Z" fill="#16595e"></path><path d="M572.14,72.56a60.8,60.8,0,0,0-8.53.79A24.22,24.22,0,0,0,557.86,75a7.89,7.89,0,0,0-3.21,2.41,5.12,5.12,0,0,0-1,3.09,6.87,6.87,0,0,0,.53,2.81,5.27,5.27,0,0,0,1.45,1.94,5.85,5.85,0,0,0,2.15,1.1,10,10,0,0,0,2.67.34,15.29,15.29,0,0,0,3.51-.38,13.45,13.45,0,0,0,3-1.13,16.72,16.72,0,0,0,2.69-1.75,23.31,23.31,0,0,0,2.5-2.32ZM548.72,55.7a23.65,23.65,0,0,1,7.37-4.93,22.74,22.74,0,0,1,8.76-1.63A15.61,15.61,0,0,1,571,50.28a12.59,12.59,0,0,1,4.52,3.18,13.43,13.43,0,0,1,2.77,4.93,20.64,20.64,0,0,1,.94,6.35V91.13H576a3.06,3.06,0,0,1-1.63-.35,2.3,2.3,0,0,1-.89-1.36l-.82-3.91a38.19,38.19,0,0,1-3.18,2.67,18.38,18.38,0,0,1-3.26,1.95,17.31,17.31,0,0,1-3.64,1.22,19.63,19.63,0,0,1-4.3.43,14.84,14.84,0,0,1-4.52-.67,10.36,10.36,0,0,1-3.68-2,9.39,9.39,0,0,1-2.49-3.4,11.87,11.87,0,0,1-.91-4.86A9.06,9.06,0,0,1,548,76.12a11.81,11.81,0,0,1,4.36-4,28.63,28.63,0,0,1,7.86-2.87A59.76,59.76,0,0,1,572.14,68V64.74c0-3.2-.69-5.63-2.08-7.27A7.48,7.48,0,0,0,564,55a13,13,0,0,0-4.5.67,16.91,16.91,0,0,0-3.13,1.5c-.88.56-1.64,1.06-2.28,1.51a3.28,3.28,0,0,1-1.9.67,2.16,2.16,0,0,1-1.26-.38,3.75,3.75,0,0,1-.9-1Z" fill="#16595e"></path><rect x="590.43" y="31.14" width="7.25" height="59.99" fill="#16595e"></rect><path d="M238.47,102.27v30.32h-3.6V110.31c0-.29,0-.61,0-1s0-.68.08-1l-10.41,19a1.58,1.58,0,0,1-1.48.95h-.59a1.58,1.58,0,0,1-1.48-.95l-10.62-19a19.8,19.8,0,0,1,.13,2.07v22.28h-3.6V102.27h3a2.65,2.65,0,0,1,.85.11,1.2,1.2,0,0,1,.57.59l10.47,18.66c.17.34.34.69.5,1.06s.31.74.45,1.12c.15-.38.29-.76.45-1.13a8.79,8.79,0,0,1,.51-1.07L234,103a1.11,1.11,0,0,1,.56-.59,2.69,2.69,0,0,1,.85-.11Z" fill="#4d4d4d"></path><path d="M302.73,117.44a17.49,17.49,0,0,1-1.08,6.25,14.36,14.36,0,0,1-3,4.9,13.51,13.51,0,0,1-4.73,3.18,17,17,0,0,1-12.19,0,13.57,13.57,0,0,1-4.72-3.18,14.34,14.34,0,0,1-3-4.9,18.62,18.62,0,0,1,0-12.5,14.48,14.48,0,0,1,3-4.91,13.75,13.75,0,0,1,4.72-3.2,16.86,16.86,0,0,1,12.19,0,13.7,13.7,0,0,1,4.73,3.2,14.5,14.5,0,0,1,3,4.91,17.49,17.49,0,0,1,1.08,6.25m-4.21,0a15.6,15.6,0,0,0-.76-5,10.66,10.66,0,0,0-2.16-3.76,9.37,9.37,0,0,0-3.39-2.36,12.38,12.38,0,0,0-8.86,0,9.37,9.37,0,0,0-3.39,2.36,10.53,10.53,0,0,0-2.17,3.76,16.86,16.86,0,0,0,0,10,10.49,10.49,0,0,0,2.17,3.75,9.21,9.21,0,0,0,3.39,2.34,12.38,12.38,0,0,0,8.86,0,9.21,9.21,0,0,0,3.39-2.34,10.62,10.62,0,0,0,2.16-3.75,15.49,15.49,0,0,0,.76-5" fill="#4d4d4d"></path><path d="M347.78,129.33a10.28,10.28,0,0,0,3-.4,5.79,5.79,0,0,0,2.09-1.13,4.41,4.41,0,0,0,1.19-1.74,6.07,6.07,0,0,0,.38-2.21,4.51,4.51,0,0,0-1.67-3.71,7.78,7.78,0,0,0-5-1.37h-6.56v10.56Zm-6.56-23.82v10.34h5.42a10.39,10.39,0,0,0,3-.38,6.1,6.1,0,0,0,2.12-1,4.11,4.11,0,0,0,1.23-1.64,5.44,5.44,0,0,0,.41-2.11,4.63,4.63,0,0,0-1.61-3.92,8.14,8.14,0,0,0-5-1.24Zm5.59-3.24a18.78,18.78,0,0,1,4.81.55,9.4,9.4,0,0,1,3.32,1.57,6.13,6.13,0,0,1,1.91,2.48,8.54,8.54,0,0,1,.62,3.32,6.67,6.67,0,0,1-.35,2.14,6.34,6.34,0,0,1-1.05,1.92,7.21,7.21,0,0,1-1.77,1.59,9.46,9.46,0,0,1-2.5,1.16,9.07,9.07,0,0,1,5,2.38A6.32,6.32,0,0,1,358.5,124a8.41,8.41,0,0,1-.71,3.51,7.62,7.62,0,0,1-2.07,2.73,9.78,9.78,0,0,1-3.35,1.76,15,15,0,0,1-4.53.63h-10.7V102.27Z" fill="#4d4d4d"></path><rect x="393.03" y="102.27" width="4.1" height="30.31" fill="#4d4d4d"></rect><polygon points="450.58 129.14 450.58 132.59 433.39 132.59 433.39 102.28 437.47 102.28 437.47 129.14 450.58 129.14" fill="#4d4d4d"></polygon><rect x="483.66" y="102.27" width="4.1" height="30.31" fill="#4d4d4d"></rect><polygon points="544.51 105.72 534.7 105.72 534.7 132.59 530.62 132.59 530.62 105.72 520.78 105.72 520.78 102.27 544.51 102.27 544.51 105.72" fill="#4d4d4d"></polygon><path d="M588.89,120.51v12.08h-4.1V120.51l-11.1-18.24h3.59a1.29,1.29,0,0,1,.87.27,2.15,2.15,0,0,1,.55.69L585.64,115l.7,1.38a11.3,11.3,0,0,1,.54,1.31c.16-.44.34-.88.53-1.31s.42-.89.66-1.38L595,103.23a2.3,2.3,0,0,1,.52-.66,1.28,1.28,0,0,1,.87-.3H600Z" fill="#4d4d4d"></path><path d="M222.9,164.78h-2.27a1,1,0,0,1-.64-.2,1.18,1.18,0,0,1-.36-.49l-1.75-4.61h-8.76l-1.76,4.61a1.1,1.1,0,0,1-.35.47,1,1,0,0,1-.64.22H204.1L212,144.91h3Zm-5.82-7.4-3-7.71a19,19,0,0,1-.64-2c-.1.4-.2.77-.31,1.11s-.21.64-.31.91l-2.93,7.68Z" fill="#b88c2d"></path><path d="M227.8,152.67a9.81,9.81,0,0,1,.95-.88,5.65,5.65,0,0,1,2.26-1.13,6.07,6.07,0,0,1,1.38-.16,5,5,0,0,1,2,.39A4,4,0,0,1,235.9,152a4.52,4.52,0,0,1,.9,1.68,7.34,7.34,0,0,1,.31,2.17v8.95h-2.72v-8.95a3.6,3.6,0,0,0-.69-2.35,2.56,2.56,0,0,0-2.11-.83,4,4,0,0,0-2,.49,6.47,6.47,0,0,0-1.68,1.33v10.31h-2.7V150.72h1.62a.66.66,0,0,1,.71.54Z" fill="#b88c2d"></path><path d="M261.6,162.39v2.39H249.28V144.91h12.31v2.4h-9.35v6.29h7.52v2.31h-7.52v6.48Z" fill="#b88c2d"></path><path d="M264.83,164.78V150.72h1.61a.66.66,0,0,1,.71.54l.19,1.34a7.23,7.23,0,0,1,1.73-1.51,4.13,4.13,0,0,1,2.22-.59,3.29,3.29,0,0,1,2.26.77,4.39,4.39,0,0,1,1.28,2.08,4.18,4.18,0,0,1,.79-1.29,4.53,4.53,0,0,1,1.08-.88,4.63,4.63,0,0,1,1.26-.51,5.69,5.69,0,0,1,1.36-.17,5.41,5.41,0,0,1,2,.35,3.94,3.94,0,0,1,1.49,1,4.65,4.65,0,0,1,.93,1.67,7.51,7.51,0,0,1,.31,2.27v8.95h-2.71v-8.95a3.61,3.61,0,0,0-.68-2.38,2.48,2.48,0,0,0-2-.8,3,3,0,0,0-1.11.2,2.53,2.53,0,0,0-.92.6,2.93,2.93,0,0,0-.62,1,3.93,3.93,0,0,0-.23,1.39v8.95h-2.71v-8.95a3.73,3.73,0,0,0-.65-2.41,2.33,2.33,0,0,0-1.91-.77,3.09,3.09,0,0,0-1.62.45,5.5,5.5,0,0,0-1.37,1.25v10.43Z" fill="#b88c2d"></path><path d="M290.75,152.83a7.92,7.92,0,0,1,.95-1,5.59,5.59,0,0,1,1.08-.74,5.38,5.38,0,0,1,2.64-.66,5,5,0,0,1,2.18.47,4.6,4.6,0,0,1,1.67,1.38,6.68,6.68,0,0,1,1.07,2.26,11,11,0,0,1,.38,3.08,9.59,9.59,0,0,1-.42,2.9,7.19,7.19,0,0,1-1.2,2.32,5.61,5.61,0,0,1-1.91,1.54,5.55,5.55,0,0,1-2.54.56,4.75,4.75,0,0,1-3.76-1.58v6.11h-2.7V150.72h1.62a.65.65,0,0,1,.7.54Zm.14,8.49a3.82,3.82,0,0,0,1.43,1.22,4.16,4.16,0,0,0,1.72.34,3.39,3.39,0,0,0,2.87-1.33,6.34,6.34,0,0,0,1-3.9,10.11,10.11,0,0,0-.23-2.29,4.42,4.42,0,0,0-.66-1.55,2.62,2.62,0,0,0-1.08-.88,3.44,3.44,0,0,0-1.43-.28,3.82,3.82,0,0,0-2,.52,5.76,5.76,0,0,0-1.6,1.5Z" fill="#b88c2d"></path><path d="M307,144.36v20.42h-2.71V144.36Z" fill="#b88c2d"></path><path d="M317.35,150.5a7.35,7.35,0,0,1,2.8.51,5.69,5.69,0,0,1,2.13,1.45,6.33,6.33,0,0,1,1.35,2.28,9.81,9.81,0,0,1,0,6,6.33,6.33,0,0,1-1.35,2.28,5.8,5.8,0,0,1-2.13,1.45,7.55,7.55,0,0,1-2.8.5,7.66,7.66,0,0,1-2.82-.5A6,6,0,0,1,312.4,163a6.35,6.35,0,0,1-1.36-2.28,9.62,9.62,0,0,1,0-6,6.35,6.35,0,0,1,1.36-2.28,5.85,5.85,0,0,1,2.13-1.45A7.46,7.46,0,0,1,317.35,150.5Zm0,12.37a3.44,3.44,0,0,0,3-1.34,7.71,7.71,0,0,0,0-7.56,3.42,3.42,0,0,0-3-1.35,3.48,3.48,0,0,0-3,1.35,7.71,7.71,0,0,0,0,7.56A3.5,3.5,0,0,0,317.35,162.87Z" fill="#b88c2d"></path><path d="M339.43,150.72l-7.81,18.14a1.11,1.11,0,0,1-.33.47,1,1,0,0,1-.61.17h-2l2.57-5.61-5.77-13.17h2.35a.79.79,0,0,1,.54.17.89.89,0,0,1,.28.37l3.57,8.44.21.64c.07.22.13.44.18.65.06-.22.13-.44.2-.66l.24-.64,3.44-8.43a1,1,0,0,1,.31-.38.72.72,0,0,1,.47-.16Z" fill="#b88c2d"></path><path d="M353.12,162.77a5.31,5.31,0,0,1-1.15,1,6.81,6.81,0,0,1-1.38.68,9.4,9.4,0,0,1-1.52.39,10.08,10.08,0,0,1-1.54.12,7.19,7.19,0,0,1-2.69-.49A6,6,0,0,1,342.7,163a6.33,6.33,0,0,1-1.41-2.35,9.44,9.44,0,0,1-.51-3.23,7.82,7.82,0,0,1,.46-2.73,6.45,6.45,0,0,1,1.31-2.21,5.93,5.93,0,0,1,2.08-1.48,6.8,6.8,0,0,1,2.76-.54,6.58,6.58,0,0,1,2.38.42,5.39,5.39,0,0,1,1.87,1.23,5.52,5.52,0,0,1,1.24,2,7.42,7.42,0,0,1,.45,2.68,1.78,1.78,0,0,1-.14.84.56.56,0,0,1-.51.21h-9.21a7.06,7.06,0,0,0,.36,2.19,4.43,4.43,0,0,0,.87,1.56,3.68,3.68,0,0,0,1.34.93,4.72,4.72,0,0,0,1.73.3,5.05,5.05,0,0,0,1.55-.21,6.94,6.94,0,0,0,1.14-.45,8.84,8.84,0,0,0,.8-.45,1.18,1.18,0,0,1,.57-.2.59.59,0,0,1,.52.25Zm-2.23-6.58a4.64,4.64,0,0,0-.22-1.48,3.44,3.44,0,0,0-.68-1.18,3,3,0,0,0-1.07-.77,4.1,4.1,0,0,0-4.15.7,4.82,4.82,0,0,0-1.24,2.73Z" fill="#b88c2d"></path><path d="M368.27,162.77a5.31,5.31,0,0,1-1.15,1,6.81,6.81,0,0,1-1.38.68,9.68,9.68,0,0,1-1.52.39,10.08,10.08,0,0,1-1.54.12,7.19,7.19,0,0,1-2.69-.49,6,6,0,0,1-2.14-1.44,6.33,6.33,0,0,1-1.41-2.35,9.44,9.44,0,0,1-.51-3.23,7.82,7.82,0,0,1,.46-2.73,6.59,6.59,0,0,1,1.3-2.21,6.06,6.06,0,0,1,2.09-1.48,6.8,6.8,0,0,1,2.76-.54,6.58,6.58,0,0,1,2.38.42,5.39,5.39,0,0,1,1.87,1.23,5.52,5.52,0,0,1,1.24,2,7.42,7.42,0,0,1,.45,2.68,1.78,1.78,0,0,1-.14.84.56.56,0,0,1-.51.21h-9.22a7.71,7.71,0,0,0,.36,2.19,4.61,4.61,0,0,0,.88,1.56,3.68,3.68,0,0,0,1.34.93,4.72,4.72,0,0,0,1.73.3,5.1,5.1,0,0,0,1.55-.21,6.94,6.94,0,0,0,1.14-.45,8.84,8.84,0,0,0,.8-.45,1.18,1.18,0,0,1,.57-.2.6.6,0,0,1,.52.25ZM366,156.19a4.38,4.38,0,0,0-.23-1.48,3.27,3.27,0,0,0-.67-1.18,2.92,2.92,0,0,0-1.08-.77,3.52,3.52,0,0,0-1.46-.28,3.62,3.62,0,0,0-2.68,1,4.82,4.82,0,0,0-1.24,2.73Z" fill="#b88c2d"></path><path d="M371.67,155.32h6.92v2.29h-6.92Z" fill="#b88c2d"></path><path d="M401.73,154.85a11.42,11.42,0,0,1-.71,4.08,9.61,9.61,0,0,1-2,3.21,9.13,9.13,0,0,1-3.12,2.1,11.29,11.29,0,0,1-8,0,9,9,0,0,1-3.11-2.1,9.79,9.79,0,0,1-2-3.21,12.11,12.11,0,0,1,0-8.17,9.79,9.79,0,0,1,2-3.21,9,9,0,0,1,3.11-2.1,11,11,0,0,1,8,0,9.13,9.13,0,0,1,3.12,2.1,9.61,9.61,0,0,1,2,3.21A11.52,11.52,0,0,1,401.73,154.85Zm-3,0a9.63,9.63,0,0,0-.49-3.19,6.84,6.84,0,0,0-1.37-2.39,6.11,6.11,0,0,0-2.16-1.51,8,8,0,0,0-5.66,0,6.24,6.24,0,0,0-2.17,1.51,7,7,0,0,0-1.38,2.39,9.9,9.9,0,0,0-.48,3.19,9.79,9.79,0,0,0,.48,3.18,6.92,6.92,0,0,0,1.38,2.39,6.21,6.21,0,0,0,2.17,1.5,8,8,0,0,0,5.66,0,6.09,6.09,0,0,0,2.16-1.5,6.75,6.75,0,0,0,1.37-2.39A9.52,9.52,0,0,0,398.72,154.85Z" fill="#b88c2d"></path><path d="M424.92,150.72l-4.53,14.06h-2.16c-.25,0-.43-.17-.52-.51l-3-9.16c-.08-.23-.14-.46-.2-.69l-.15-.68a11,11,0,0,1-.34,1.4l-3,9.13a.59.59,0,0,1-.59.51h-2l-4.54-14.06H406a.84.84,0,0,1,.53.16.75.75,0,0,1,.28.38l2.53,8.63c.09.35.16.7.22,1s.13.66.18,1l.27-1c.1-.33.2-.68.3-1l2.81-8.68a.69.69,0,0,1,.26-.38.75.75,0,0,1,.47-.15H415a.8.8,0,0,1,.5.15.62.62,0,0,1,.27.38l2.74,8.68c.1.35.2.7.29,1s.18.68.25,1c.06-.33.12-.66.2-1s.15-.69.24-1.05l2.58-8.63a.69.69,0,0,1,.28-.38.78.78,0,0,1,.49-.16Z" fill="#b88c2d"></path><path d="M430.24,152.67a9.91,9.91,0,0,1,1-.88,5.94,5.94,0,0,1,1.05-.69,5.75,5.75,0,0,1,2.58-.6,5,5,0,0,1,2,.39,4,4,0,0,1,1.48,1.09,4.83,4.83,0,0,1,.9,1.68,7.34,7.34,0,0,1,.3,2.17v8.95h-2.71v-8.95a3.6,3.6,0,0,0-.69-2.35,2.58,2.58,0,0,0-2.12-.83,4,4,0,0,0-1.94.49,6.16,6.16,0,0,0-1.68,1.33v10.31h-2.7V150.72h1.62a.65.65,0,0,1,.7.54Z" fill="#b88c2d"></path><path d="M455.22,162.77a5.5,5.5,0,0,1-1.14,1,7.16,7.16,0,0,1-1.39.68,9.56,9.56,0,0,1-1.51.39,10.18,10.18,0,0,1-1.54.12,7.15,7.15,0,0,1-2.69-.49A6.07,6.07,0,0,1,444.8,163a6.61,6.61,0,0,1-1.41-2.35,9.45,9.45,0,0,1-.5-3.23,8.06,8.06,0,0,1,.45-2.73,6.61,6.61,0,0,1,1.31-2.21,6,6,0,0,1,2.08-1.48,6.81,6.81,0,0,1,2.77-.54,6.49,6.49,0,0,1,2.37.42,5.3,5.3,0,0,1,1.87,1.23,5.52,5.52,0,0,1,1.24,2,7.42,7.42,0,0,1,.45,2.68,1.66,1.66,0,0,1-.14.84.56.56,0,0,1-.51.21h-9.21a7.71,7.71,0,0,0,.36,2.19,4.3,4.3,0,0,0,.88,1.56,3.64,3.64,0,0,0,1.33.93,4.76,4.76,0,0,0,1.73.3,5.17,5.17,0,0,0,1.56-.21,6.81,6.81,0,0,0,1.13-.45,7.64,7.64,0,0,0,.8-.45,1.18,1.18,0,0,1,.58-.2.58.58,0,0,1,.51.25ZM453,156.19a4.64,4.64,0,0,0-.23-1.48,3.42,3.42,0,0,0-.67-1.18,3.09,3.09,0,0,0-1.08-.77,3.57,3.57,0,0,0-1.47-.28,3.61,3.61,0,0,0-2.67,1,4.76,4.76,0,0,0-1.24,2.73Z" fill="#b88c2d"></path><path d="M470.61,144.36v20.42H469a.66.66,0,0,1-.7-.54l-.24-1.62a7.5,7.5,0,0,1-2,1.71,5.25,5.25,0,0,1-2.63.64,5,5,0,0,1-2.18-.47,4.58,4.58,0,0,1-1.67-1.37,6.71,6.71,0,0,1-1.06-2.25,11.56,11.56,0,0,1-.38-3.09,9.63,9.63,0,0,1,.42-2.9,7.14,7.14,0,0,1,1.2-2.33A5.7,5.7,0,0,1,461.6,151a5.63,5.63,0,0,1,2.53-.56,5.09,5.09,0,0,1,2.17.42,5,5,0,0,1,1.59,1.17v-7.69Zm-2.72,9.77a3.82,3.82,0,0,0-1.43-1.22,4.13,4.13,0,0,0-1.72-.35,3.4,3.4,0,0,0-2.87,1.34,6.33,6.33,0,0,0-1,3.89,10,10,0,0,0,.23,2.29,4.35,4.35,0,0,0,.67,1.55,2.62,2.62,0,0,0,1.07.89,3.62,3.62,0,0,0,1.44.28,3.81,3.81,0,0,0,2-.53,6,6,0,0,0,1.6-1.48Z" fill="#b88c2d"></path><path d="M496.79,160.52a.56.56,0,0,1,.43.19l1.16,1.27a8.37,8.37,0,0,1-3,2.23,10.16,10.16,0,0,1-4.22.79,9.79,9.79,0,0,1-3.9-.75,8.49,8.49,0,0,1-3-2.09,9.22,9.22,0,0,1-1.92-3.21,12,12,0,0,1-.68-4.1,11.3,11.3,0,0,1,.72-4.11,9.24,9.24,0,0,1,2-3.21,8.9,8.9,0,0,1,3.07-2.09,10.21,10.21,0,0,1,4-.75,9.66,9.66,0,0,1,3.76.69,9.49,9.49,0,0,1,2.86,1.84l-1,1.37a.72.72,0,0,1-.24.25.61.61,0,0,1-.38.1,1.11,1.11,0,0,1-.61-.26,8.08,8.08,0,0,0-.93-.59,7.42,7.42,0,0,0-1.42-.59,7.33,7.33,0,0,0-2.1-.26,6.82,6.82,0,0,0-2.71.52,6,6,0,0,0-2.13,1.49,6.92,6.92,0,0,0-1.38,2.39,9.75,9.75,0,0,0-.49,3.21,9.46,9.46,0,0,0,.51,3.22,7,7,0,0,0,1.41,2.39,6,6,0,0,0,2.12,1.5,6.74,6.74,0,0,0,2.63.51,10.22,10.22,0,0,0,1.54-.11,5.81,5.81,0,0,0,1.26-.31,5.41,5.41,0,0,0,1.08-.53,7.2,7.2,0,0,0,1-.78,1.11,1.11,0,0,1,.24-.16A.58.58,0,0,1,496.79,160.52Z" fill="#b88c2d"></path><path d="M507,150.5a7.4,7.4,0,0,1,2.81.51,5.85,5.85,0,0,1,2.13,1.45,6.46,6.46,0,0,1,1.34,2.28,9.61,9.61,0,0,1,0,6A6.46,6.46,0,0,1,512,163a6,6,0,0,1-2.13,1.45,8.15,8.15,0,0,1-5.62,0,6,6,0,0,1-2.14-1.45,6.5,6.5,0,0,1-1.36-2.28,9.61,9.61,0,0,1,0-6,6.5,6.5,0,0,1,1.36-2.28A5.89,5.89,0,0,1,504.2,151,7.37,7.37,0,0,1,507,150.5Zm0,12.37a3.47,3.47,0,0,0,3-1.34,7.78,7.78,0,0,0,0-7.56,4,4,0,0,0-6,0,7.71,7.71,0,0,0,0,7.56A3.5,3.5,0,0,0,507,162.87Z" fill="#b88c2d"></path><path d="M517.27,164.78V150.72h1.61a.66.66,0,0,1,.71.54l.19,1.34a7.38,7.38,0,0,1,1.72-1.51,4.18,4.18,0,0,1,2.22-.59,3.3,3.3,0,0,1,2.27.77,4.39,4.39,0,0,1,1.28,2.08,4.18,4.18,0,0,1,.79-1.29,4.69,4.69,0,0,1,1.07-.88,4.83,4.83,0,0,1,1.27-.51,5.69,5.69,0,0,1,1.36-.17,5.44,5.44,0,0,1,2,.35,3.94,3.94,0,0,1,1.49,1,4.65,4.65,0,0,1,.93,1.67,7.51,7.51,0,0,1,.31,2.27v8.95h-2.71v-8.95a3.61,3.61,0,0,0-.68-2.38,2.48,2.48,0,0,0-2-.8,3,3,0,0,0-1.11.2,2.53,2.53,0,0,0-.92.6,2.93,2.93,0,0,0-.62,1,3.93,3.93,0,0,0-.23,1.39v8.95h-2.71v-8.95a3.73,3.73,0,0,0-.65-2.41,2.33,2.33,0,0,0-1.91-.77,3.09,3.09,0,0,0-1.62.45,5.33,5.33,0,0,0-1.37,1.25v10.43Z" fill="#b88c2d"></path><path d="M543.19,152.83a7.92,7.92,0,0,1,.95-1,5.3,5.3,0,0,1,1.08-.74,5.38,5.38,0,0,1,2.64-.66,5,5,0,0,1,2.18.47,4.6,4.6,0,0,1,1.67,1.38,6.68,6.68,0,0,1,1.07,2.26,11.43,11.43,0,0,1,.38,3.08,9.59,9.59,0,0,1-.42,2.9,7,7,0,0,1-1.21,2.32,5.49,5.49,0,0,1-4.44,2.1,4.75,4.75,0,0,1-3.76-1.58v6.11h-2.7V150.72h1.62a.65.65,0,0,1,.7.54Zm.14,8.49a3.82,3.82,0,0,0,1.43,1.22,4.13,4.13,0,0,0,1.72.34,3.4,3.4,0,0,0,2.87-1.33,6.34,6.34,0,0,0,1-3.9,10.11,10.11,0,0,0-.23-2.29,4.25,4.25,0,0,0-.67-1.55,2.59,2.59,0,0,0-1.07-.88,3.46,3.46,0,0,0-1.44-.28,3.87,3.87,0,0,0-2,.52,5.73,5.73,0,0,0-1.59,1.5Z" fill="#b88c2d"></path><path d="M556.33,152.69a7.66,7.66,0,0,1,5.57-2.23,5.4,5.4,0,0,1,2.13.39,4.54,4.54,0,0,1,1.57,1.1,4.84,4.84,0,0,1,1,1.69,7.11,7.11,0,0,1,.32,2.17v9h-1.2a1.23,1.23,0,0,1-.61-.13.92.92,0,0,1-.33-.5l-.29-1.23a10.13,10.13,0,0,1-1.07.88,6.12,6.12,0,0,1-1.1.65,5.47,5.47,0,0,1-1.22.41,7,7,0,0,1-1.44.14,5.19,5.19,0,0,1-1.55-.23,3.35,3.35,0,0,1-1.27-.7,3.28,3.28,0,0,1-.85-1.17,4,4,0,0,1-.31-1.65,3.13,3.13,0,0,1,.45-1.6,4,4,0,0,1,1.46-1.37,9.44,9.44,0,0,1,2.66-1,19.27,19.27,0,0,1,4-.44v-1a3.54,3.54,0,0,0-.68-2.38,2.48,2.48,0,0,0-2-.78,4.34,4.34,0,0,0-1.49.22,5.2,5.2,0,0,0-1,.49c-.29.18-.55.34-.76.49a1.16,1.16,0,0,1-.67.22.76.76,0,0,1-.48-.15,1.26,1.26,0,0,1-.33-.36Zm7.91,5.85a21.65,21.65,0,0,0-2.79.25,8,8,0,0,0-1.87.54,2.51,2.51,0,0,0-1,.78,1.7,1.7,0,0,0-.32,1,2.14,2.14,0,0,0,.18.91,1.62,1.62,0,0,0,.47.62,1.85,1.85,0,0,0,.7.35,3,3,0,0,0,.87.11,5.11,5.11,0,0,0,1.14-.12,4.48,4.48,0,0,0,1-.35,4.84,4.84,0,0,0,.88-.56c.27-.23.54-.48.81-.76Z" fill="#b88c2d"></path><path d="M573.54,152.67a9.81,9.81,0,0,1,1-.88,6,6,0,0,1,1.06-.69,5.7,5.7,0,0,1,1.2-.44,6.07,6.07,0,0,1,1.38-.16,5,5,0,0,1,2,.39,3.93,3.93,0,0,1,1.47,1.09,4.52,4.52,0,0,1,.9,1.68,7,7,0,0,1,.31,2.17v8.95h-2.71v-8.95a3.54,3.54,0,0,0-.7-2.35,2.56,2.56,0,0,0-2.11-.83,4,4,0,0,0-2,.49,6.47,6.47,0,0,0-1.68,1.33v10.31H571V150.72h1.62a.66.66,0,0,1,.7.54Z" fill="#b88c2d"></path><path d="M598.92,150.72l-7.8,18.14a1.11,1.11,0,0,1-.33.47,1,1,0,0,1-.61.17h-2l2.57-5.61L585,150.72h2.35a.81.81,0,0,1,.54.17,1,1,0,0,1,.28.37l3.57,8.44.21.64a5.68,5.68,0,0,1,.17.65l.21-.66c.07-.22.15-.43.24-.64l3.44-8.43a1,1,0,0,1,.3-.38.75.75,0,0,1,.48-.16Z" fill="#b88c2d"></path><path d="M85.44,32.44l-1.66.14a11.83,11.83,0,0,0-5,1.57c-6,3-12.08,8.63-16.36,15.26-2.31,3.57-4.72,8.1-4.72,9,0,.49,1.1.44,13.31.28,7.3-.09,13.58-.16,13.86-.28a1.68,1.68,0,0,0,.7-1c.1-.39.13-6.15.14-12.84V32.87A1.33,1.33,0,0,0,85.44,32.44Z" fill="#66a784"></path><path d="M94.31,32.58c-.91.09-1,.23-1.25,1.57-.11.79-.29,6.31-.41,12.41-.2,9.53-.12,11.22.27,11.55a11.57,11.57,0,0,0,3.61.43c4.45.18,23.2,0,23.57-.29s-2-5.08-4.58-9.12a43.13,43.13,0,0,0-13.58-13.55C99.18,33.91,95.48,32.46,94.31,32.58Z" fill="#66a784"></path><path d="M116.21,37.72A31.81,31.81,0,0,0,119,42.14c1.62,2.35,3.86,5.67,4.85,7.41s2.45,4.47,3.33,6l1.38,2.56a3.93,3.93,0,0,0,.42.29l2.08.14c2.14.18,9.58,0,9.84-.29s-3.19-4.3-6.24-7.41a60.3,60.3,0,0,0-9-7.71C123.38,41.55,116.81,37.76,116.21,37.72Z" fill="#66a784"></path><path d="M61,38.86a6.7,6.7,0,0,0-2.22,1,65.87,65.87,0,0,0-16.63,13.4c-3.17,3.44-4.4,5.22-3.88,5.57s9.54.3,10.39-.15c.48-.25,1.89-2.34,3.75-5.7,1.6-2.91,4.14-7.15,5.68-9.42S60.93,39.29,61,39C61.07,38.91,61.11,38.87,61,38.86Z" fill="#66a784"></path><path d="M140.89,65.53c-4.47,0-9.39.39-9.7.71a8.7,8.7,0,0,0,.55,2.71,123.14,123.14,0,0,1,3.33,18.83,33,33,0,0,0,.69,5.42c.27.55.78.85,1.8,1,2,.29,15.24.18,15.95-.14.52-.25.46-.65.27-3a70.91,70.91,0,0,0-5.68-20.82c-1.95-4.24-2-4.69-5.55-4.71C142.05,65.52,141.55,65.52,140.89,65.53Z" fill="#66a784"></path><path d="M38.58,66c-5.21.17-5.46.31-7.34,4A90.91,90.91,0,0,0,26,85.64c-.56,3-.67,8.16-.14,8.7s13.23.68,15.11.29a2.51,2.51,0,0,0,1.39-.86A45.79,45.79,0,0,0,43,88.49a144.55,144.55,0,0,1,2.91-17.4c1.32-5.31,1.43-4.72-1-5-.86-.09-2.71-.16-4.58-.14C39.76,66,39.18,65.94,38.58,66Z" fill="#66a784"></path><path d="M57.44,66.1c-2,.08-2.35.3-2.64.57-1.27,1.2-3.32,9.3-4.43,18-.82,6.36-1,8.68-.7,9.13.13.21.71.34,1.39.43,1.53.19,33.76.06,34-.14s.19-6.31.28-13.7c.16-12.66.11-13.38-.42-13.83s-2.56-.43-15-.43C63.12,66.1,59.45,66,57.44,66.1Z" fill="#66a784"></path><path d="M92.65,66.24,92.37,73c-.29,9.8-.21,19.46.14,20.39.27.75.55.74,2.63.86,1.25.07,9,.16,17.33.14,14.77,0,15.21-.08,15.67-.71s.43-1.26.27-3.57c-.5-7.29-2.77-18.69-4.43-22.82l-.42-1H92.65Z" fill="#66a784"></path><path d="M145.33,101.33c-7.43,0-8.42.09-8.88.57s-.69,2.19-1.24,7.28A129.91,129.91,0,0,1,132,127.72a17.43,17.43,0,0,0-.7,3.56v1.15h3.05l3.75-.15h2.08c1.59-.05,2.92-.06,3.46-.14a3.41,3.41,0,0,0,2.64-1.43c2-2.4,4.18-7.94,5.82-14.69,1.52-6.26,2.37-13.19,1.8-14.12C153.67,101.49,152.43,101.33,145.33,101.33Z" fill="#66a784"></path><path d="M116.08,101.62c-3.25,0-7,.06-10.54.14L92.65,102l-.14,1.86c-.11,1.06-.28,7.68-.42,14.69-.19,10.2-.18,12.87.14,13.27s2.29.57,15.39.57h15.25l.55-.72c2-3.14,5.12-19.46,5.13-26.67v-3c0-.05-.11-.1-.14-.14l-5-.14C122,101.7,119.32,101.61,116.08,101.62Z" fill="#66a784"></path><path d="M34.15,101.76c-3.67,0-7.42.13-8.18.43s-.83.44-.83,2.28c0,3.67,1.52,11.22,3.46,17.12A63.2,63.2,0,0,0,33,131.43c.9,1.13,2.13,1.22,8,1.14a44.19,44.19,0,0,0,6-.29,11.49,11.49,0,0,0-.56-3.28,154,154,0,0,1-3.74-21.82c-.36-3.41-.58-4.69-1-5S37.82,101.77,34.15,101.76Z" fill="#66a784"></path><path d="M67.56,101.9c-14.72.08-17.66.19-17.89.57-.55.94.7,12.35,2.08,19.12,1,4.89,2.48,9.6,3.19,10.27s1.6.65,16.5.71l13.31.14.13-1c.11-.55.14-7.47.14-15.4V101.9Z" fill="#66a784"></path><path d="M106.09,139.56c-6.7,0-13.31.15-13.58.43-.59.61-.86,24.73-.28,25.1.43.27,1.3.27,4-.43a24.87,24.87,0,0,0,7.63-3.71,62.7,62.7,0,0,0,11.36-11.69c2.6-3.75,5.05-8.78,4.58-9.27C119.55,139.71,112.8,139.54,106.09,139.56Z" fill="#66a784"></path><path d="M134.1,139.56a36.12,36.12,0,0,0-4,.14c-1.65.25-1.74.24-2.64,1.86a146.11,146.11,0,0,1-8.73,14.4,49.88,49.88,0,0,0-2.91,4.42.21.21,0,0,0,.27.15,7.49,7.49,0,0,0,.84-.43c.82-.44,2.19-1.28,4.57-2.71a56.17,56.17,0,0,0,9.57-7c5.22-4.64,10-10,9.42-10.56-.2-.21-3.49-.29-6.37-.28" fill="#66a784"></path><path d="M82.25,139.7c-1.32,0-3.26.06-5.68.14-4.1.14-9.86.13-12.76.15a29.05,29.05,0,0,0-5.68.42c-.3.2.16,1.15,1.8,4a51.74,51.74,0,0,0,8.32,11.27c5.76,6,11.15,9.16,15,9h1.39l.14-12.26c.06-9.56-.11-12.31-.42-12.56A7,7,0,0,0,82.25,139.7Z" fill="#66a784"></path><path d="M40.25,140.13c-.9.05-1.39.19-1.39.28,0,1.05,10.12,11.06,14,13.84,2.87,2.06,7.63,4.7,8.32,4.71.25,0,0-.52-.69-1.43A100.8,100.8,0,0,1,52,143.84a12.56,12.56,0,0,0-2.08-3c-.89-.77-1-.71-6-.71-1.52,0-2.85-.06-3.74,0" fill="#66a784"></path><path d="M114,185.52a9.39,9.39,0,1,1-9.39-9.67,9.52,9.52,0,0,1,9.39,9.67" fill="#f26226"></path><path d="M144,174a9.39,9.39,0,1,1-9.39-9.66A9.53,9.53,0,0,1,144,174" fill="#efb11e"></path><path d="M167.61,153.68a9.39,9.39,0,1,1-9.39-9.67,9.53,9.53,0,0,1,9.39,9.67" fill="#66a784"></path><path d="M182.75,124.24a9.4,9.4,0,1,1-9.4-9.67,9.53,9.53,0,0,1,9.4,9.67" fill="#36939a"></path><path d="M187,88.57a9.4,9.4,0,1,1-9.4-9.67,9.54,9.54,0,0,1,9.4,9.67" fill="#db4126"></path><path d="M176.2,54.7A9.39,9.39,0,1,1,166.81,45a9.53,9.53,0,0,1,9.39,9.67" fill="#bc892c"></path><path d="M151.41,27.66A9.4,9.4,0,1,1,142,18a9.54,9.54,0,0,1,9.39,9.66" fill="#4f8768"></path><path d="M117.91,13.92a9.4,9.4,0,1,1-18.79,0,9.4,9.4,0,1,1,18.79,0" fill="#175a5f"></path><path d="M86.36,8.39C38.53,9.32,0,49.53,0,99s38.53,89.65,86.36,90.57v-7.15C42.28,181.47,7,144.53,7,99S42.28,16.45,86.36,15.54Z" fill="#16595e"></path></svg> 